<?xml version="1.0" encoding="iso-8859-1"?>
<!-- Generator: Adobe Illustrator 19.0.0, SVG Export Plug-In . SVG Version: 6.00 Build 0)  -->
<svg version="1.1" id="Capa_1" xmlns="http://www.w3.org/2000/svg" xmlns:xlink="http://www.w3.org/1999/xlink" x="0px" y="0px"
	 viewBox="0 0 376.8 376.8" style="enable-background:new 0 0 376.8 376.8;" xml:space="preserve">
<path style="fill:#FF4D5D;" d="M262.396,123.6c0,0-20.8-7.6-37.6-32c-10.8-15.6-27.6-32-38.4-42l23.2,65.6c12,27.6,54,38.8,54,38.8
	L262.396,123.6z"/>
<path style="fill:#88D0FF;" d="M295.596,311.2l-112.8-257.6h-32.8l-112.8,257.6c-7.2,16.4,0.8,34.8,17.6,41.2
	c0,0,27.2,14.8,80.8,17.6c9.2,0.4,52,0.4,61.2,0c53.6-2.4,80.8-17.6,80.8-17.6C294.796,346.4,302.796,327.6,295.596,311.2z"/>
<path style="fill:#FFA57A;" d="M281.196,78.8c-27.2-17.2-43.2-55.2-70.4-62c-8.8-2-16.4-1.2-22.8,1.2l4,20.4
	c16.4,0,25.6,15.2,48.8,42.8c29.2,34.8,91.2,44.4,91.2,44.4l9.6-27.2C341.996,98.4,308.396,96,281.196,78.8z"/>
<path style="fill:#FFD36D;" d="M192.796,32.8c0,2,0,3.6-0.4,5.2c-0.8,4.4-2.8,8.4-5.6,11.6c-4.8,5.6-12,9.6-20.4,9.6
	c-14.4,0-26.4-12-26.4-26.4s12-26.4,26.4-26.4c9.2,0,17.2,4.4,22,11.6C191.196,22.4,192.796,27.6,192.796,32.8z"/>
<path style="fill:#361700;" d="M52.396,358.4c4,2,32,15.6,83.2,18c4.8,0.4,17.6,0.4,30.8,0.4s26.4,0,31.2-0.4
	c51.6-2.4,79.6-16,83.2-18c9.6-3.6,17.2-10.8,21.2-20c4-9.6,4-20-0.4-29.6l-71.2-162.4c15.2,9.6,30.8,14,32,14
	c0.4,0,1.2,0.4,1.6,0.4c1.6,0,2.8-0.4,4-1.6c1.6-1.2,2.4-3.2,2.4-5.2l-1.6-30.4c0-2.4-2-4.8-4.4-5.6c0,0-19.2-7.2-34.4-29.6
	c-9.6-14-23.6-28.4-35.2-39.2c0.8-1.2,1.2-2.4,1.6-3.6c8,2,15.2,10.4,29.2,27.2c3.2,4,6.4,8,10.4,12.4c30.4,36,92.4,46.4,95.2,46.8
	c0.4,0,0.8,0,1.2,0c2.8,0,5.2-1.6,6-4.4l9.6-27.2c0.8-2,0.4-4-0.8-5.6c-1.2-1.6-2.8-2.8-5.2-2.8c-0.4,0-32.4-2.4-57.6-18.4
	c-10.8-6.8-20-18-29.2-28.4c-12.8-14.8-25.6-30-43.2-34.4c-7.2-1.6-14.8-1.6-21.6,0c-6-6.8-14.8-10.8-24-10.8
	c-18,0-32.8,14.8-32.8,32.8c0,8.4,3.2,16.4,8.8,22l-110.8,254c-4,9.6-4.4,20-0.4,29.6C35.196,347.6,42.396,354.8,52.396,358.4z
	 M209.196,23.2c13.6,3.2,24.4,16.4,36.4,30c9.6,11.2,19.6,22.8,32,30.8c20,12.8,43.2,17.6,55.2,19.6l-5.2,14
	c-15.2-3.2-59.2-14.4-82-41.2c-3.2-4-6.4-8-9.6-12c-14.4-17.2-24-28.8-36.8-31.6c0-3.6-0.8-6.8-1.6-10
	C201.596,22,205.596,22.4,209.196,23.2z M219.596,95.6c13.6,19.6,29.2,28.8,36.4,32.8l0.8,16.8c-12-4.8-33.6-14.8-41.2-32
	l-19.2-44.8C204.396,76.8,213.196,86.4,219.596,95.6z M166.396,13.2c6.4,0,12.8,3.2,16.4,8.8c2.4,3.2,3.6,7.2,3.6,11.2
	c0,1.2,0,2.8-0.4,4c-0.8,3.2-2,6.4-4.4,8.8c-3.6,4.4-9.2,7.2-15.2,7.2c-10.8,0-20-8.8-20-20S155.596,13.2,166.396,13.2z
	 M152.796,62.8c4,2,8.8,2.8,13.6,2.8s9.2-1.2,13.6-2.8l24,55.2l0,0l0,0l3.6,8.4l-18.4,15.2l-34-27.6c-2.4-2-5.6-2-8-0.4l-23.6,17.2
	L152.796,62.8z M113.196,154l37.6-27.2l34.4,28c2.4,2,5.6,2,8,0l20-16l12.4,28.4l-36.4,31.6l-34-27.6c-2.4-2-6-2-8,0l-34.8,28
	l-14-11.6L113.196,154z M93.196,200l15.2,12.4c2.4,2,6,2,8,0l34-27.6l34,27.6c1.2,0.8,2.8,1.6,4,1.6c1.6,0,3.2-0.4,4.4-1.6
	l37.6-32.8l33.2,76l-32.8-26.8c-2.4-2-6-2-8.4,0l-34,27.6l-34-27.6c-2.4-2-6-2-8,0l-34,28l-32.8-26.4L93.196,200z M74.396,242.8
	l34,27.6c2.4,2,6,2,8,0l34-27.6l34,27.6c2.4,2,5.6,2,8,0l34-27.6l48.4,39.6l13.6,30.8l-38.4-31.2c-2.4-2-5.6-2-8,0l-46.8,38
	l-46.8-38.4c-2.4-2-6-2-8,0l-46.8,38l-38.8-31.6L74.396,242.8z M43.196,314l6-13.6l40.4,32.4c2.4,2,6,2,8,0l46.8-37.6l46.8,38
	c2.4,2,5.6,2,8,0l46.8-38l44,35.6c-0.4,0.8-0.4,1.6-0.8,2.4c-2.8,6-7.6,10.8-14,13.2c-0.4,0-0.4,0.4-0.8,0.4s-26.8,14-78,16.8
	c-9.2,0.4-51.6,0.4-60.4,0c-51.2-2.4-78-16.4-78-16.8c-0.4,0-0.4-0.4-0.8-0.4c-6.4-2.4-11.2-7.2-14-13.2S40.796,320.4,43.196,314z"
	/>
<g>
</g>
<g>
</g>
<g>
</g>
<g>
</g>
<g>
</g>
<g>
</g>
<g>
</g>
<g>
</g>
<g>
</g>
<g>
</g>
<g>
</g>
<g>
</g>
<g>
</g>
<g>
</g>
<g>
</g>
</svg>
