<?xml version="1.0" encoding="iso-8859-1"?>
<!-- Generator: Adobe Illustrator 19.0.0, SVG Export Plug-In . SVG Version: 6.00 Build 0)  -->
<svg version="1.1" id="Layer_1" xmlns="http://www.w3.org/2000/svg" xmlns:xlink="http://www.w3.org/1999/xlink" x="0px" y="0px"
	 viewBox="0 0 512 512" style="enable-background:new 0 0 512 512;" xml:space="preserve">
<g>
	<g>
		<g>
			<path d="M407.996,187.614c-4.719,0-8.533,3.814-8.533,8.533c0,4.71,3.814,8.533,8.533,8.533
				c19.703,0,35.738,16.026,35.738,35.738c0,4.71,3.814,8.533,8.533,8.533c4.719,0,8.533-3.823,8.533-8.533
				C460.8,211.302,437.111,187.614,407.996,187.614z"/>
			<path d="M503.467,238.81h-8.553c-0.859-47.202-39.513-85.333-86.926-85.333h-32.521h-17.433H154.038h-17.504h-32.45
				c-47.404,0-86.058,38.131-86.917,85.333H8.533c-4.719,0-8.533,3.823-8.533,8.533s3.814,8.533,8.533,8.533h8.613v12.809
				c0,34.577,19.302,65.476,50.381,80.649c12.621,6.161,26.103,9.19,39.492,9.19c19.55,0,38.895-6.468,55.083-19.098l44.083-34.406
				c28.945-22.596,39.945-59.639,27.989-94.37c-0.129-0.374-0.272-0.739-0.406-1.11c14.085-6.666,30.417-6.528,44.395,0.383
				c-0.086,0.244-0.182,0.482-0.266,0.727c-11.947,34.731-0.956,71.774,27.998,94.37l44.092,34.406
				c16.179,12.629,35.524,19.098,55.074,19.098c13.38,0,26.863-3.029,39.492-9.19c31.07-15.164,50.381-46.071,50.381-80.649v-12.809
				h8.532c4.719,0,8.533-3.823,8.533-8.533S508.186,238.81,503.467,238.81z M195.68,291.571l-44.083,34.398
				c-22.409,17.502-51.046,20.497-76.587,8.021c-25.549-12.467-40.798-36.881-40.798-65.306v-28.271
				c0-38.528,31.334-69.871,69.871-69.871h32.45h17.504c35.601,0,56.405,23.586,64,45.662
				C225.632,238.272,223.747,269.666,195.68,291.571z M226.477,194.111c-5.554-9.264-12.703-17.219-21.052-23.568h101.224
				c-8.451,6.428-15.675,14.499-21.259,23.911C266.823,185.399,245.159,185.278,226.477,194.111z M437.07,333.999
				c-25.557,12.467-54.187,9.463-76.587-8.03l-44.092-34.398c-28.066-21.905-29.952-53.299-22.349-75.366
				c7.595-22.076,28.39-45.662,63.991-45.662h17.433h32.521c38.537,0,69.88,31.343,69.88,69.871v6.912
				c0,0.006-0.001,0.011-0.001,0.017s0.001,0.011,0.001,0.017v21.325C477.868,297.118,462.618,321.523,437.07,333.999z"/>
			<path d="M85.333,196.143H68.267c-4.719,0-8.533,3.823-8.533,8.533s3.814,8.533,8.533,8.533h17.067
				c4.719,0,8.533-3.823,8.533-8.533S90.052,196.143,85.333,196.143z"/>
		</g>
	</g>
</g>
<g>
</g>
<g>
</g>
<g>
</g>
<g>
</g>
<g>
</g>
<g>
</g>
<g>
</g>
<g>
</g>
<g>
</g>
<g>
</g>
<g>
</g>
<g>
</g>
<g>
</g>
<g>
</g>
<g>
</g>
</svg>
