<svg height="512pt" viewBox="0 -105 512 512" width="512pt" xmlns="http://www.w3.org/2000/svg"><path d="m512 105.28125h-55.828125c-3.933594-26.726562-27.011719-47.3125-54.816406-47.3125h-100.351563v-57.96875h-89.964844v57.96875h-100.382812c-27.804688 0-50.882812 20.585938-54.816406 47.3125h-55.839844v149.027344h55.835938c3.933593 26.730468 27.015624 47.3125 54.816406 47.3125h290.703125c27.804687 0 50.882812-20.582032 54.816406-47.3125h55.828125zm-482.011719 29.988281h25.25v89.054688h-25.25zm211.035157-105.28125h29.992187v57.96875h-29.992187zm-33.371094 241.648438 4.734375-26.992188h87.265625l4.734375 26.992188zm219.132812-25.429688c0 14.023438-11.40625 25.429688-25.429687 25.429688h-66.523438l-9.996093-56.976563h-137.632813l-9.996094 56.976563h-66.550781c-14.023438 0-25.429688-11.40625-25.429688-25.429688v-132.824219c0-14.019531 11.40625-25.425781 25.429688-25.425781h100.382812v29.988281h89.964844v-29.988281h100.351563c14.023437 0 25.429687 11.40625 25.429687 25.425781zm55.226563-21.886719h-25.242188v-89.050781h25.242188zm0 0"/></svg>