<svg id="Layer_1" enable-background="new 0 0 496 496" height="512" viewBox="0 0 496 496" width="512" xmlns="http://www.w3.org/2000/svg"><path d="m400.72 356.208v-28.838c0-8.837-7.163-16-16-16h-273.44c-8.837 0-16 7.163-16 16v28.838c0 5.944-3.289 11.41-8.56 14.157-15.371 8.01-25.89 24.1-25.89 42.595v35.04c0 26.51 21.49 48 48 48h278.34c26.51 0 48-21.49 48-48v-35.04c0-18.496-10.519-34.586-25.89-42.595-5.271-2.747-8.56-8.213-8.56-14.157zm2.45 91.792c0 8.82-7.17 16-16 16h-278.34c-8.83 0-16-7.18-16-16v-35.04c0-8.83 7.17-16 16-16h278.34c8.83 0 16 7.17 16 16zm-86.06-308.08c43.626-57.205 2.83-139.92-69.11-139.92-71.941 0-112.735 82.717-69.11 139.92-43.662 26.269-73.517 70.752-81.477 120.849-1.55 9.752 5.919 18.601 15.794 18.601h269.587c9.874 0 17.343-8.849 15.794-18.601-7.961-50.097-37.816-94.58-81.478-120.849zm-69.11-107.92c49.218 0 73.159 59.671 39.1 93.83-25.4-8.36-52.8-8.36-78.2 0-34.064-34.164-10.109-93.83 39.1-93.83z"/></svg>